<svg width="40" height="40" viewBox="0 0 20 20" fill="none" xmlns="http://www.w3.org/2000/svg">
<g clip-path="url(#clip0_1185_1074)">
<mask id="mask0_1185_1074" style="mask-type:luminance" maskUnits="userSpaceOnUse" x="0" y="0" width="20" height="20">
<path d="M10 19.5C15.2467 19.5 19.5 15.2467 19.5 10C19.5 4.75329 15.2467 0.5 10 0.5C4.75329 0.5 0.5 4.75329 0.5 10C0.5 15.2467 4.75329 19.5 10 19.5Z" fill="white"/>
</mask>
<g mask="url(#mask0_1185_1074)">
<path d="M0.5 0.5H19.5V19.5H0.5V0.5Z" fill="#0052B4"/>
<path d="M6.21484 11.6328L6.73438 12.7461L7.92188 12.4492L7.40234 13.5625L8.33008 14.3047L7.14258 14.5645L7.17969 15.7891L6.21484 15.0098L5.25 15.7891L5.28711 14.5645L4.0625 14.3047L5.02734 13.5625L4.50781 12.4492L5.69531 12.7461L6.21484 11.6328ZM14.4531 10.6309H16.1973L14.7871 11.6328L15.3438 10L15.8633 11.6328L14.4531 10.6309ZM14.7129 4.61914L14.9727 5.17578L15.5664 5.02734L15.3066 5.58398L15.752 5.95508L15.1953 6.06641V6.69727L14.7129 6.28906L14.2305 6.69727V6.06641L13.6738 5.95508L14.1191 5.58398L13.8594 5.02734L14.4531 5.17578L14.7129 4.61914ZM16.8281 7.10547L17.0879 7.66211L17.6816 7.51367L17.4219 8.07031L17.8672 8.44141L17.3105 8.55273V9.14648L16.8281 8.77539L16.3457 9.18359V8.55273L15.7891 8.44141L16.2344 8.07031L15.9746 7.51367L16.5684 7.66211L16.8281 7.10547ZM12.3008 7.92188L12.5605 8.47852L13.1543 8.33008L12.8945 8.88672L13.3398 9.25781L12.7832 9.36914V9.96289L12.3008 9.5918L11.8184 10V9.36914L11.2617 9.25781L11.707 8.88672L11.4473 8.33008L12.041 8.47852L12.3008 7.92188ZM14.7129 13.7109L14.9727 14.2676L15.5664 14.1191L15.3066 14.6758L15.752 15.0469L15.1953 15.1582V15.7891L14.7129 15.3809L14.2305 15.7891V15.1582L13.6738 15.0469L14.1191 14.6758L13.8594 14.1191L14.4531 14.2676L14.7129 13.7109ZM0.5 0.5V1.6875L1.6875 2.875L0.5 4.0625V10H1.6875L2.875 8.8125L4.0625 10H5.25V6.91992L8.33008 10H10L9.70312 9.40625L10 8.84961V8.33008L6.91992 5.25H10V4.0625L8.8125 2.875L10 1.6875V0.5H4.0625L2.875 1.6875L1.6875 0.5H0.5Z" fill="#EEEEEE"/>
<path d="M1.6875 0.5V1.6875H0.5V4.0625H1.6875V10H4.0625V4.0625H10V1.6875H4.0625V0.5H1.6875ZM5.25 5.25L10 10V8.84961L6.40039 5.25H5.25Z" fill="#D80027"/>
</g>
</g>
<defs>
<clipPath id="clip0_1185_1074">
<rect width="19" height="19" fill="white" transform="translate(0.5 0.5)"/>
</clipPath>
</defs>
</svg>
