<svg width="40" height="40" viewBox="0 0 20 20" fill="none" xmlns="http://www.w3.org/2000/svg">
<g clip-path="url(#clip0_1185_1123)">
<mask id="mask0_1185_1123" style="mask-type:luminance" maskUnits="userSpaceOnUse" x="0" y="0" width="20" height="20">
<path d="M10 19.5C15.2467 19.5 19.5 15.2467 19.5 10C19.5 4.75329 15.2467 0.5 10 0.5C4.75329 0.5 0.5 4.75329 0.5 10C0.5 15.2467 4.75329 19.5 10 19.5Z" fill="white"/>
</mask>
<g mask="url(#mask0_1185_1123)">
<path d="M0.5 0.5V19.5H5.84375L10 17.125L14.1562 19.5H19.5V0.5H14.1562L10 2.875L5.84375 0.5H0.5Z" fill="#D80027"/>
<path d="M5.84375 0.5H14.1562V19.5H5.84375V0.5Z" fill="#EEEEEE"/>
<path d="M11.6699 11.2246L13.3027 10.4082L12.4863 10V9.18359L10.8164 10L11.6699 8.36719H10.8164L10 7.10547L9.18359 8.33008H8.33008L9.18359 10L7.51367 9.18359V10L6.69727 10.4082L8.36719 11.2246L7.92188 12.0781H9.5918V13.3027H10.4082V12.0781H12.0781L11.6699 11.2246Z" fill="#D80027"/>
</g>
</g>
<defs>
<clipPath id="clip0_1185_1123">
<rect width="19" height="19" fill="white" transform="translate(0.5 0.5)"/>
</clipPath>
</defs>
</svg>
