<svg width="40" height="40" viewBox="0 0 20 20" fill="none" xmlns="http://www.w3.org/2000/svg">
<mask id="mask0_1185_1145" style="mask-type:luminance" maskUnits="userSpaceOnUse" x="0" y="0" width="20" height="20">
<path d="M10 19.5C15.2467 19.5 19.5 15.2467 19.5 10C19.5 4.75329 15.2467 0.5 10 0.5C4.75329 0.5 0.5 4.75329 0.5 10C0.5 15.2467 4.75329 19.5 10 19.5Z" fill="white"/>
</mask>
<g mask="url(#mask0_1185_1145)">
<path d="M0.5 0.5H19.5V19.5H0.5V0.5Z" fill="#D80027"/>
<path d="M5.69902 6.28169L6.51914 8.80513H9.17246L7.02754 10.3674L7.84766 12.8909L5.69902 11.3323L3.55039 12.8909L4.37422 10.3674L2.22559 8.80513H4.87891L5.69902 6.28169ZM11.7627 15.2139L11.1355 14.442L10.2078 14.802L10.7459 13.967L10.1188 13.1915L11.0799 13.4475L11.6217 12.6125L11.6736 13.6071L12.6385 13.8631L11.707 14.2194L11.7627 15.2139ZM13.0096 12.9502L13.3064 12.0002L12.4938 11.425L13.4883 11.4102L13.7814 10.4602L14.1043 11.4028L15.0988 11.3917L14.301 11.9854L14.6201 12.928L13.8074 12.3528L13.0096 12.9502ZM14.6906 7.4729L14.2527 8.36724L14.9652 9.06118L13.9818 8.92017L13.5439 9.81079L13.3732 8.8311L12.3861 8.69009L13.2693 8.22622L13.0986 7.24282L13.8111 7.93677L14.6906 7.4729ZM11.7887 4.76392L11.7145 5.75474L12.6385 6.12954L11.6699 6.36704L11.5994 7.36157L11.0762 6.51548L10.1076 6.75298L10.7496 5.99224L10.2227 5.14985L11.1467 5.52466L11.7887 4.76392Z" fill="#FFDA44"/>
</g>
</svg>
